<?xml version="1.0" encoding="UTF-8" standalone="no"?> <svg xmlns="http://www.w3.org/2000/svg" viewBox="0 0 64 64"><title>email</title><g id="email"><path d="M4,34.64V57a3.009,3.009,0,0,0,3,3h3.59L25.05,45.53Z"/><path d="M32.46,48.89a1.017,1.017,0,0,1-.92,0L26.92,46.5,13.41,60H50.59L37.08,46.5Z"/><path d="M53.41,60H57a3.009,3.009,0,0,0,3-3V34.64L38.95,45.53Z"/><path d="M57,28H45v3.59l3.71,3.7a1,1,0,0,1,.21,1.09A.987.987,0,0,1,48,37H37.91a5.993,5.993,0,0,1-11.82,0H16a.987.987,0,0,1-.92-.62,1,1,0,0,1,.21-1.09L19,31.59V28H7a3.009,3.009,0,0,0-3,3v1.39L32,46.87,60,32.39V31A3.009,3.009,0,0,0,57,28Z"/><path d="M32,40a4,4,0,0,0,3.86-3H28.14A4,4,0,0,0,32,40Z"/><path d="M45.59,35l-2.3-2.29A1.033,1.033,0,0,1,43,32V20a11,11,0,0,0-22,0V32a1.033,1.033,0,0,1-.29.71L18.41,35Z"/><path d="M35,7.36V7a3,3,0,0,0-6,0v.36a12.68,12.68,0,0,1,6,0Z"/></g></svg>