<?xml version="1.0" encoding="iso-8859-1"?>
<!-- Generator: Adobe Illustrator 21.0.0, SVG Export Plug-In . SVG Version: 6.00 Build 0)  -->
<svg version="1.1" id="Layer_1" xmlns="http://www.w3.org/2000/svg" xmlns:xlink="http://www.w3.org/1999/xlink" x="0px" y="0px"
	 viewBox="0 0 24 24" enable-background="new 0 0 24 24" xml:space="preserve">
<g>
	<path fill="#303C42" d="M4.5,0H4C2.8974609,0,2,0.8969727,2,2v20c0,1.1030273,0.8974609,2,2,2h0.5
		C4.7763672,24,5,23.7763672,5,23.5v-23C5,0.2236328,4.7763672,0,4.5,0z"/>
	<path fill="#303C42" d="M19.5,16H16c-2.2060547,0-4-1.7944336-4-4s1.7939453-4,4-4h3.5C19.7763672,8,20,7.7763672,20,7.5V2
		c0-1.1030273-0.8974609-2-2-2H6.5C6.2236328,0,6,0.2236328,6,0.5v23C6,23.7763672,6.2236328,24,6.5,24H18
		c1.1025391,0,2-0.8969727,2-2v-5.5C20,16.2236328,19.7763672,16,19.5,16z"/>
	<path fill="#303C42" d="M21,9h-5c-1.6542969,0-3,1.3457031-3,3s1.3457031,3,3,3h5c0.5517578,0,1-0.4487305,1-1v-4
		C22,9.4487305,21.5517578,9,21,9z M16,13c-0.5517578,0-1-0.4487305-1-1s0.4482422-1,1-1s1,0.4487305,1,1S16.5517578,13,16,13z"/>
</g>
<g>
</g>
<g>
</g>
<g>
</g>
<g>
</g>
<g>
</g>
<g>
</g>
<g>
</g>
<g>
</g>
<g>
</g>
<g>
</g>
<g>
</g>
<g>
</g>
<g>
</g>
<g>
</g>
<g>
</g>
</svg>
