<svg width="20" height="20" viewBox="0 0 20 20" fill="none" xmlns="http://www.w3.org/2000/svg">
<path fill-rule="evenodd" clip-rule="evenodd" d="M1 9.99993C1 5.03698 5.03698 1 9.99993 1V1.00015H10.0052C14.9681 1.00015 19.0051 5.03713 19.0051 10.0001C19.0051 14.9629 14.9681 19 10.0052 19C8.17444 19 6.47602 18.4551 5.05281 17.5133L1.59252 18.6189L2.71424 15.2751C1.63493 13.7935 1 11.9682 1 9.99993ZM6.91537 5.12697C7.17983 5.13772 7.31213 5.15355 7.48669 5.57151C7.54308 5.70761 7.62055 5.89555 7.70544 6.1015C7.94721 6.688 8.24921 7.42063 8.29617 7.51855C8.35964 7.65085 8.42325 7.83079 8.33321 8.00535C8.25444 8.17273 8.18486 8.25315 8.06902 8.38702C8.06034 8.39705 8.0514 8.40738 8.04217 8.41808C7.98555 8.48377 7.92992 8.54266 7.87442 8.60139C7.80025 8.6799 7.72633 8.75814 7.65065 8.85201C7.64853 8.8545 7.64641 8.85699 7.64428 8.85949C7.52439 9.00016 7.39409 9.15303 7.54492 9.41288C7.69828 9.6721 8.22734 10.5345 9.00517 11.2275C9.92829 12.0484 10.6907 12.3567 11.0345 12.4957C11.0652 12.5081 11.0925 12.5192 11.1163 12.5291C11.3331 12.6192 11.5925 12.598 11.7512 12.4286C11.9233 12.2432 12.1301 11.953 12.3453 11.6511C12.3817 11.6001 12.4183 11.5487 12.455 11.4974C12.6348 11.2434 12.8622 11.2116 13.1004 11.3015C13.3438 11.3862 14.6296 12.0211 14.8941 12.1534C14.9481 12.1805 14.9983 12.2046 15.0447 12.2269C15.2252 12.3137 15.3462 12.3719 15.3967 12.4603C15.4603 12.5714 15.4603 13.0952 15.2433 13.7091C15.0264 14.3227 14.1639 14.8308 13.4761 14.9789C13.0053 15.0794 12.3914 15.1589 10.3227 14.3018C7.87233 13.2871 6.22987 10.9063 5.8958 10.422C5.8692 10.3835 5.85089 10.3569 5.84113 10.3441C5.83741 10.3389 5.833 10.3329 5.82792 10.326C5.65983 10.0962 4.77242 8.88288 4.77242 7.62965C4.77242 6.37479 5.39226 5.74487 5.66985 5.46276C5.67786 5.45463 5.68559 5.44677 5.693 5.43921C5.90997 5.21701 6.26969 5.11652 6.61374 5.11652C6.71436 5.11702 6.81495 5.1205 6.91537 5.12697Z" fill="white"/>
</svg>
